# xmcd CD database file
#
# Track frame offsets:
#	150
#	11092
#	20030
#	31232
#	44488
#	55157
#	62679
#	71222
#	82989
#	91196
#	103635
#	111795
#	121494
#
# Disc length: 1732 seconds
#
# Revision: 0
# Processed by: cddbd v1.5.2PL0 Copyright (c) Steve Scherf et al.
# Submitted via: CDex 1.51
#
DISCID=ab06c20d
DTITLE=The Royal Deuces - Introducing
DYEAR=2007
DGENRE=Country
TTITLE0=That's Why
TTITLE1=Cold Ground
TTITLE2=Catalina Boogie
TTITLE3=Sweet Woman
TTITLE4=My Search
TTITLE5=Plain As Can Be
TTITLE6=Drinkin' Till Dawn
TTITLE7=Misery and Hearteach
TTITLE8=Red Hot Gal
TTITLE9=Down South Blues
TTITLE10=If I Wander Back Tonight
TTITLE11=When The Trhth Come Out
TTITLE12=Bonus Track
EXTD=YEAR: 2007
EXTT0=
EXTT1=
EXTT2=
EXTT3=
EXTT4=
EXTT5=
EXTT6=
EXTT7=
EXTT8=
EXTT9=
EXTT10=
EXTT11=
EXTT12=
PLAYORDER=
